<svg xmlns="http://www.w3.org/2000/svg" xml:space="preserve" width="2000" height="195" data-id="lg_ghXwel1ygfKtmEetGJ" data-version="1" viewBox="0 0 2000 195"><g data-padding="20"><g transform="translate(10 3.476)scale(.96435)"><rect width="388.285" height="201.14" x="575.069" y="-100.993" fill="none" rx="0" ry="0" transform="matrix(.97 0 0 .97 372.42 97.91)"/><path fill="#2c3ad1" d="M1007.595 151.18h-42.93l-31.04-125.87h29.14l24.31 106.9-6.03-3.96h15.69l-6.73 3.96 18.8-102.25h23.45Zm75.87 0h-43.8l-26.55-121.22h24.66l21.72 102.25-6.55-3.96h15l-5.69 3.96 21.21-106.9h27.59Zm71.4 34.49h-27.59V56.7h21.9v40.86l-2.94-.17q.69-14.14 5.87-23.88 5.17-9.74 13.96-14.66 8.8-4.91 19.83-4.91 9.83 0 17.85 3.62t13.79 10.09q5.78 6.46 8.8 15.17 3.01 8.71 3.01 19.05v3.97q0 10.17-2.93 19.05t-8.53 15.44q-5.61 6.55-13.62 10.26-8.02 3.7-18.37 3.7-10.69 0-19.22-4.39-8.54-4.4-13.71-13.45-5.17-9.06-5.69-23.02l7.59 10.34Zm23.27-54.48q7.07 0 12.33-3.45t8.19-9.66q2.93-6.2 2.93-14.31 0-8.1-2.93-14.14-2.93-6.03-8.1-9.4-5.17-3.36-12.42-3.36-6.2 0-11.72 2.93t-8.88 8.37q-3.36 5.43-3.36 13.19v6.38q0 7.41 3.53 12.67 3.54 5.26 9.05 8.02 5.52 2.76 11.38 2.76m99.32 19.99h-27.76V25.31h27.76Zm0-105.53h-38.97V25.31h38.97ZM817.24 124.92V57.236a12.9 12.9 0 0 0-12.9-12.9h-32.216v70.916c43.602 0 45.133 9.683 45.133 9.683m57.998-9.683c-.051 0 0-70.899 0-70.899h-32.233a12.9 12.9 0 0 0-12.9 12.9v67.682s2.236-9.683 45.133-9.683"/><path fill="#2c3ad1" d="M888.225 54.02v67.683c-60.544 0-58.411 19.35-58.411 19.35h-12.281s2.27-19.23-58.308-19.333v-67.7c-7.12 0-12.9 8.996-12.9 16.117v51.566a12.9 12.9 0 0 0 12.9 12.9c34.538 0 47.283 6.949 51.617 10.647 1.72 1.462 3.922 2.236 6.192 2.236h13.14a9.46 9.46 0 0 0 5.935-2.064c15.996-12.832 52.116-10.836 52.116-10.836a12.9 12.9 0 0 0 12.9-12.866V70.137c0-7.12-5.78-16.116-12.9-16.116"/></g><path fill="transparent" stroke="transparent" d="M719.5 0h561v195h-561z"/></g></svg>